<?xml version="1.0" standalone="no"?>
<!DOCTYPE svg PUBLIC "-//W3C//DTD SVG 20010904//EN"
 "http://www.w3.org/TR/2001/REC-SVG-20010904/DTD/svg10.dtd">
<svg version="1.0" xmlns="http://www.w3.org/2000/svg"
 width="250.000000pt" height="143.000000pt" viewBox="0 0 250.000000 143.000000"
 preserveAspectRatio="xMidYMid meet">

<g transform="translate(0.000000,143.000000) scale(0.100000,-0.100000)"
fill="#000000" stroke="none">
<path d="M67 1352 l-67 -68 0 -462 0 -462 70 0 70 0 0 530 c0 292 -1 530 -3
530 -1 0 -33 -30 -70 -68z"/>
<path d="M1068 1353 l-68 -69 0 -300 c0 -339 6 -383 67 -471 43 -64 132 -126
204 -143 110 -27 242 7 326 84 22 19 55 64 74 98 32 60 34 68 34 163 0 95 -2
103 -34 163 -41 75 -94 125 -170 161 -47 22 -70 26 -143 26 -47 0 -89 -3 -93
-6 -3 -4 2 -35 12 -69 l18 -63 60 -1 c121 -3 206 -83 213 -200 5 -75 -16 -125
-74 -175 -46 -41 -73 -51 -137 -51 -87 1 -165 51 -200 129 -8 18 -14 152 -17
409 l-5 383 -67 -68z"/>
<path d="M473 1056 c-100 -33 -186 -106 -227 -195 -17 -37 -21 -65 -21 -146 0
-89 3 -106 28 -156 33 -69 99 -132 175 -167 49 -23 69 -27 147 -26 110 1 162
21 239 94 76 72 110 150 110 255 0 66 -5 91 -28 142 -34 74 -113 154 -183 184
-61 27 -182 34 -240 15z m160 -137 c47 -13 109 -67 132 -115 9 -19 16 -59 16
-89 0 -66 -21 -114 -71 -159 -80 -72 -191 -73 -276 -3 -98 81 -98 245 0 323
63 51 125 64 199 43z"/>
<path d="M2043 1056 c-100 -33 -169 -92 -221 -189 -24 -47 -27 -62 -27 -152 0
-95 2 -103 34 -163 41 -75 94 -125 168 -159 202 -93 436 23 490 241 39 162
-40 327 -193 402 -68 33 -183 42 -251 20z m161 -137 c61 -17 125 -84 142 -148
21 -81 4 -143 -55 -202 -188 -190 -474 64 -314 279 49 65 142 95 227 71z"/>
<path d="M1475 180 c-4 -6 -3 -16 3 -22 6 -6 12 -6 17 2 4 6 3 16 -3 22 -6 6
-12 6 -17 -2z"/>
<path d="M2255 180 c-4 -6 -3 -16 3 -22 6 -6 12 -6 17 2 4 6 3 16 -3 22 -6 6
-12 6 -17 -2z"/>
<path d="M500 110 c0 -56 3 -70 15 -70 12 0 15 14 15 70 0 56 -3 70 -15 70
-12 0 -15 -14 -15 -70z"/>
<path d="M776 165 c-3 -8 -2 -15 3 -15 5 0 14 7 21 15 10 12 10 15 -3 15 -8 0
-17 -7 -21 -15z"/>
<path d="M1100 160 c0 -13 -7 -20 -20 -20 -20 0 -40 -27 -40 -54 0 -24 29 -46
61 -46 l29 0 0 70 c0 56 -3 70 -15 70 -8 0 -15 -9 -15 -20z m-4 -88 c-4 -3
-11 -1 -18 6 -8 8 -8 15 3 28 13 16 14 16 17 -5 2 -13 1 -25 -2 -29z"/>
<path d="M1290 110 c0 -56 3 -70 15 -70 12 0 15 14 15 70 0 56 -3 70 -15 70
-12 0 -15 -14 -15 -70z"/>
<path d="M1641 157 c-13 -33 -2 -117 15 -117 9 0 14 12 14 33 0 18 6 39 12 45
10 10 10 15 -1 21 -9 6 -10 11 -2 15 18 11 13 26 -9 26 -12 0 -24 -9 -29 -23z"/>
<path d="M2336 165 c-3 -8 -2 -15 3 -15 5 0 14 7 21 15 10 12 10 15 -3 15 -8
0 -17 -7 -21 -15z"/>
<path d="M0 161 c0 -5 7 -11 15 -15 11 -4 15 -20 15 -56 0 -38 4 -50 15 -50
12 0 15 13 15 55 0 30 5 55 10 55 6 0 10 5 10 10 0 6 -18 10 -40 10 -22 0 -40
-4 -40 -9z"/>
<path d="M104 132 c-39 -27 -14 -92 36 -92 40 0 42 29 3 31 -27 2 -27 2 -3 6
35 7 44 18 31 42 -12 21 -46 28 -67 13z m36 -22 c0 -5 -7 -10 -16 -10 -8 0
-12 5 -9 10 3 6 10 10 16 10 5 0 9 -4 9 -10z"/>
<path d="M200 121 c-14 -27 -13 -47 6 -65 20 -20 54 -21 54 -1 0 8 -7 15 -15
15 -8 0 -15 9 -15 20 0 11 7 23 15 26 24 9 18 24 -10 24 -14 0 -29 -8 -35 -19z"/>
<path d="M280 90 c0 -37 4 -50 14 -50 10 0 16 13 18 38 4 48 22 48 26 0 4 -53
32 -52 32 0 0 47 -14 62 -57 62 -33 0 -33 0 -33 -50z"/>
<path d="M402 128 c-17 -17 -15 -63 3 -78 23 -19 64 -4 71 27 4 14 2 33 -3 42
-13 20 -54 26 -71 9z m45 -42 c-4 -9 -11 -16 -17 -16 -11 0 -14 33 -3 44 11
10 26 -11 20 -28z"/>
<path d="M561 126 c-17 -20 -10 -67 11 -79 27 -18 68 7 68 41 0 15 -5 33 -12
40 -16 16 -53 15 -67 -2z m49 -37 c0 -10 -7 -19 -15 -19 -15 0 -21 31 -9 43
11 10 24 -3 24 -24z"/>
<path d="M674 133 c-30 -22 -19 -83 16 -83 11 0 20 -4 20 -10 0 -5 -12 -10
-26 -10 -33 0 -27 -24 8 -28 41 -5 59 22 56 82 -3 49 -4 51 -33 54 -16 1 -35
-1 -41 -5z m36 -38 c0 -14 -4 -25 -10 -25 -11 0 -14 33 -3 43 11 11 13 8 13
-18z"/>
<path d="M770 90 c0 -38 4 -50 15 -50 11 0 15 12 15 50 0 38 -4 50 -15 50 -11
0 -15 -12 -15 -50z"/>
<path d="M830 131 c0 -6 9 -11 20 -11 27 0 25 -18 -2 -22 -26 -3 -37 -36 -16
-49 7 -5 26 -9 41 -9 27 0 28 1 25 48 -3 45 -4 47 -35 50 -19 2 -33 -1 -33 -7z
m36 -68 c-10 -10 -19 5 -10 18 6 11 8 11 12 0 2 -7 1 -15 -2 -18z"/>
<path d="M929 124 c-11 -14 -10 -19 9 -34 l21 -18 -20 -5 c-12 -3 -18 -10 -14
-16 10 -16 51 -13 66 5 11 14 10 19 -9 34 -26 21 -28 30 -7 30 8 0 15 5 15 10
0 16 -46 11 -61 -6z"/>
<path d="M1160 121 c-14 -27 -13 -47 6 -65 21 -22 74 -21 74 0 0 11 -6 15 -20
11 -11 -3 -23 -1 -26 4 -3 5 6 9 20 9 21 0 26 5 26 24 0 38 -61 51 -80 17z
m50 -11 c0 -5 -7 -10 -16 -10 -8 0 -12 5 -9 10 3 6 10 10 16 10 5 0 9 -4 9
-10z"/>
<path d="M1350 130 c0 -5 9 -10 20 -10 27 0 25 -18 -2 -22 -34 -5 -37 -45 -4
-54 44 -11 61 -2 64 34 2 18 -2 40 -9 48 -13 16 -69 19 -69 4z m41 -63 c-13
-13 -26 -3 -16 12 3 6 11 8 17 5 6 -4 6 -10 -1 -17z"/>
<path d="M1470 90 c0 -38 4 -50 15 -50 11 0 15 12 15 50 0 38 -4 50 -15 50
-11 0 -15 -12 -15 -50z"/>
<path d="M1527 134 c-4 -4 -7 -27 -7 -51 0 -36 3 -43 20 -43 17 0 20 7 20 41
0 24 4 38 10 34 6 -3 10 -22 10 -41 0 -24 4 -34 16 -34 12 0 14 10 12 48 -3
46 -4 47 -38 50 -20 2 -39 0 -43 -4z"/>
<path d="M1710 119 c-30 -55 34 -106 72 -59 19 23 16 58 -6 72 -21 15 -55 8
-66 -13z m50 -30 c0 -20 -15 -26 -24 -10 -8 13 4 42 15 35 5 -3 9 -14 9 -25z"/>
<path d="M1817 133 c-4 -3 -7 -26 -7 -50 0 -37 3 -44 18 -41 12 2 18 14 20 41
2 20 7 37 13 37 5 0 9 5 9 10 0 11 -43 14 -53 3z"/>
<path d="M1890 90 c0 -38 4 -50 15 -50 10 0 15 10 15 34 0 48 18 55 22 9 2
-27 8 -39 21 -41 14 -3 17 4 17 38 0 25 4 39 10 35 6 -3 10 -22 10 -41 0 -24
4 -34 16 -34 12 0 14 10 12 48 l-3 47 -67 3 -68 2 0 -50z"/>
<path d="M2060 130 c0 -5 9 -10 20 -10 11 0 20 -4 20 -10 0 -5 -9 -10 -20 -10
-11 0 -23 -7 -26 -15 -10 -25 16 -46 50 -43 33 3 43 27 32 74 -5 20 -13 24
-41 24 -19 0 -35 -4 -35 -10z m47 -66 c-9 -9 -28 6 -21 18 4 6 10 6 17 -1 6
-6 8 -13 4 -17z"/>
<path d="M2166 119 c-14 -21 -12 -42 7 -66 13 -18 47 -16 47 2 0 8 -7 15 -16
15 -10 0 -14 7 -12 23 2 12 9 21 15 20 6 -1 14 4 17 12 9 24 -41 18 -58 -6z"/>
<path d="M2250 90 c0 -38 4 -50 15 -50 11 0 15 12 15 50 0 38 -4 50 -15 50
-11 0 -15 -12 -15 -50z"/>
<path d="M2312 128 c-7 -7 -12 -24 -12 -38 0 -31 17 -50 45 -50 28 0 45 19 45
50 0 31 -17 50 -45 50 -12 0 -26 -5 -33 -12z m48 -39 c0 -10 -7 -19 -15 -19
-15 0 -21 31 -9 43 11 10 24 -3 24 -24z"/>
<path d="M2410 90 c0 -38 4 -50 15 -50 10 0 15 10 15 34 0 48 18 55 22 9 2
-27 8 -39 21 -41 14 -3 17 4 17 35 0 48 -14 63 -57 63 -33 0 -33 0 -33 -50z"/>
</g>
</svg>
